HIERARCHY
ROOT Hips
{
	OFFSET 0.000000 0.000000 0.000000
	CHANNELS 6 Xposition Yposition Zposition Zrotation Yrotation Xrotation 
	JOINT LHipJoint
	{
		OFFSET 0.000000 0.000000 0.000000
		CHANNELS 3 Zrotation Yrotation Xrotation
		JOINT LeftUpLeg
		{
			OFFSET 1.363060 -1.794630 0.839290
			CHANNELS 3 Zrotation Yrotation Xrotation
			JOINT LeftLeg
			{
				OFFSET 2.448110 -6.726130 0.000000
				CHANNELS 3 Zrotation Yrotation Xrotation
				JOINT LeftFoot
				{
					OFFSET 2.562200 -7.039590 0.000000
					CHANNELS 3 Zrotation Yrotation Xrotation
					JOINT LeftToeBase
					{
						OFFSET 0.157640 -0.433110 2.322550
						CHANNELS 3 Zrotation Yrotation Xrotation
						End Site
						{
							OFFSET 0.000000 0.000000 0.000000
						}
					}
				}
			}
		}
	}
	JOINT RHipJoint
	{
		OFFSET 0.000000 0.000000 0.000000
		CHANNELS 3 Zrotation Yrotation Xrotation
		JOINT RightUpLeg
		{
			OFFSET -1.305520 -1.794630 0.839290
			CHANNELS 3 Zrotation Yrotation Xrotation
			JOINT RightLeg
			{
				OFFSET -2.542530 -6.985550 0.000000
				CHANNELS 3 Zrotation Yrotation Xrotation
				JOINT RightFoot
				{
					OFFSET -2.568260 -7.056230 0.000000
					CHANNELS 3 Zrotation Yrotation Xrotation
					JOINT RightToeBase
					{
						OFFSET -0.164730 -0.452590 2.363150
						CHANNELS 3 Zrotation Yrotation Xrotation
						End Site
						{
							OFFSET 0.000000 0.000000 0.000000
						}
					}
				}
			}
		}
	}
}
MOTION
Frames: 31
Frame Time: 0.008333
4.994831 17.299450 0.909145 -176.477336 -64.901266 -174.403810 -12.181755 2.466191 -0.624830 -6.827461 30.677701 -14.003410 -2.720832 -1.390103 3.085113 1.869599 13.741348 -4.617985 0.673600 0.000000 -25.603000 8.003837 -3.114747 6.909924 5.004764 10.209084 -12.674877 3.483479 1.493349 -1.444450 1.398248 9.087292 2.447696 1.100800 0.000000 -32.803100
4.989435 17.300316 0.910391 -176.544875 -64.197394 -174.122710 -12.184891 2.455670 -0.673183 -7.018380 30.923662 -14.257431 -2.734627 -1.394201 3.160574 1.921687 14.066871 -4.704802 0.674400 -0.000000 -25.425700 7.974764 -3.109452 7.015358 4.897816 10.614350 -13.142596 3.496615 1.472370 -1.217138 1.438887 9.394002 2.509131 1.162800 -0.000001 -32.873100
4.985531 17.300802 0.912095 -176.612230 -63.482583 -173.837395 -12.185867 2.447158 -0.730606 -7.218858 31.193328 -14.521581 -2.753575 -1.395233 3.232210 1.969207 14.361305 -4.782360 0.674700 0.000000 -25.279900 7.948497 -3.097154 7.114237 4.783569 11.014492 -13.606937 3.509413 1.453642 -1.008096 1.480231 9.704637 2.581533 1.227000 -0.000000 -32.966700
4.983035 17.300919 0.913822 -176.685739 -62.763408 -173.529396 -12.182505 2.442445 -0.790550 -7.444922 31.476287 -14.817704 -2.779011 -1.394182 3.299098 2.012318 14.623733 -4.851280 0.674901 0.000000 -25.164600 7.925696 -3.078695 7.212111 4.656833 11.410948 -14.093282 3.521368 1.437336 -0.806154 1.521769 10.013806 2.658219 1.292001 -0.000000 -33.081200
4.982363 17.300687 0.915797 -176.756311 -62.043975 -173.220602 -12.176284 2.440998 -0.858876 -7.681387 31.789968 -15.128977 -2.811664 -1.389803 3.356452 2.047761 14.837139 -4.905392 0.675300 0.000000 -25.086900 7.906406 -3.052637 7.302483 4.527275 11.794137 -14.583188 3.533103 1.422651 -0.610062 1.563476 10.323017 2.741442 1.358100 -0.000000 -33.217500
4.983381 17.300232 0.917998 -176.816076 -61.328874 -172.917672 -12.167768 2.443393 -0.935559 -7.924854 32.139650 -15.453455 -2.852255 -1.382032 3.399645 2.073905 14.992773 -4.941107 0.676400 -0.000000 -25.047700 7.890407 -3.019097 7.384366 4.400188 12.159143 -15.074571 3.545142 1.409478 -0.416655 1.605208 10.631068 2.831380 1.425300 0.000000 -33.369600
4.986117 17.299689 0.920097 -176.871279 -60.624047 -172.610892 -12.155697 2.450916 -1.015205 -8.184685 32.515480 -15.802379 -2.900926 -1.371640 3.424431 2.091265 15.093553 -4.956414 0.679501 0.000000 -25.046100 7.877987 -2.978797 7.461446 4.273856 12.505614 -15.580539 3.557177 1.398051 -0.222055 1.646525 10.932053 2.926918 1.492500 0.000000 -33.540400
4.990475 17.299214 0.922257 -176.912749 -59.934748 -172.315046 -12.141632 2.463629 -1.098789 -8.450585 32.920992 -16.163259 -2.957076 -1.358283 3.425221 2.098666 15.134367 -4.946512 0.685500 0.000000 -25.081700 7.868608 -2.931701 7.530575 4.156293 12.826859 -16.085833 3.569913 1.388447 -0.030359 1.687240 11.224220 3.032454 1.559901 0.000000 -33.726200
4.996440 17.299026 0.924592 -176.937480 -59.267831 -172.038913 -12.126642 2.481635 -1.185357 -8.715213 33.352670 -16.526416 -3.019510 -1.341929 3.397646 2.096038 15.116065 -4.908208 0.695300 -0.000000 -25.152400 7.861911 -2.877989 7.589843 4.053433 13.116955 -16.577885 3.583784 1.381098 0.152422 1.726953 11.503570 3.151163 1.627300 -0.000000 -33.924900
5.003940 17.299263 0.927156 -176.945270 -58.632646 -171.787230 -12.111340 2.505065 -1.271945 -8.974718 33.798442 -16.885525 -3.086366 -1.322808 3.338949 2.084381 15.044793 -4.839931 0.709800 0.000000 -25.255800 7.857664 -2.818082 7.638639 3.968149 13.372237 -17.047063 3.598887 1.376661 0.318577 1.765031 11.763130 3.286880 1.693900 -0.000000 -34.141100
5.013053 17.300149 0.930454 -176.929289 -58.038016 -171.582829 -12.098499 2.532762 -1.361502 -9.207306 34.258652 -17.213068 -3.155198 -1.300221 3.246564 2.063298 14.920214 -4.738837 0.728800 -0.000000 -25.385600 7.855305 -2.751448 7.670067 3.911954 13.582273 -17.460093 3.616123 1.375568 0.456233 1.801000 12.000925 3.443217 1.760000 0.000000 -34.361400
5.023653 17.301755 0.934604 -176.891169 -57.496481 -171.428274 -12.088723 2.564632 -1.450411 -9.407549 34.714448 -17.500115 -3.223287 -1.274571 3.120651 2.034750 14.753056 -4.606278 0.752700 0.000000 -25.537399 7.854962 -2.678617 7.683067 3.885704 13.742902 -17.804895 3.635316 1.378697 0.556410 1.833934 12.208202 3.621097 1.823800 0.000000 -34.590000
5.035773 17.304178 0.939838 -176.832876 -57.020924 -171.330050 -12.082899 2.600123 -1.536843 -9.565554 35.149604 -17.732414 -3.287778 -1.246009 2.962373 2.000320 14.552048 -4.443835 0.780900 0.000000 -25.703399 7.856947 -2.599758 7.674878 3.891175 13.848863 -18.064471 3.656259 1.386646 0.610736 1.862930 12.377486 3.820285 1.883799 -0.000000 -34.830300
5.049403 17.307398 0.946388 -176.756193 -56.624510 -171.293254 -12.081575 2.638653 -1.619323 -9.672119 35.547452 -17.896327 -3.345951 -1.214723 2.774179 1.961680 14.325921 -4.254752 0.812900 -0.000000 -25.878300 7.861894 -2.514916 7.642498 3.929088 13.894783 -18.223808 3.678572 1.399888 0.613320 1.887030 12.501335 4.037395 1.937700 0.000000 -35.078600
5.064500 17.311335 0.954410 -176.664145 -56.320001 -171.319468 -12.084643 2.679781 -1.695889 -9.721633 35.890739 -17.982544 -3.395453 -1.181142 2.558646 1.920524 14.083229 -4.042915 0.847700 -0.000000 -26.054300 7.870773 -2.424321 7.584104 3.996971 13.877146 -18.274987 3.701515 1.418583 0.562140 1.905354 12.572551 4.267581 1.982900 0.000000 -35.336100
5.080926 17.315879 0.963901 -176.558737 -56.118532 -171.406236 -12.091419 2.723308 -1.764504 -9.712404 36.163174 -17.986432 -3.434600 -1.145895 2.318371 1.878303 13.830723 -3.813077 0.884399 -0.000000 -26.224700 7.884720 -2.328396 7.498755 4.090926 13.794044 -18.216336 3.724200 1.442693 0.459023 1.917146 12.584977 4.503492 2.016300 -0.000001 -35.598700
5.098608 17.320860 0.974794 -176.443620 -56.028872 -171.549079 -12.100633 2.769016 -1.823600 -9.646634 36.351520 -17.907562 -3.462307 -1.109766 2.055064 1.836143 13.573637 -3.569531 0.922100 -0.000000 -26.384000 7.905031 -2.227747 7.386351 4.205394 13.645619 -18.052482 3.745467 1.471687 0.309186 1.921821 12.533463 4.738554 2.035300 0.000001 -35.873000
5.117313 17.326080 0.986874 -176.321557 -56.056117 -171.739370 -12.110483 2.816793 -1.871769 -9.531579 36.446519 -17.752495 -3.478460 -1.073696 1.770003 1.794710 13.314425 -3.316605 0.959900 0.000000 -26.527400 7.932878 -2.123139 7.248170 4.333632 13.434548 -17.796133 3.764195 1.504888 0.121817 1.919072 12.415541 4.963543 2.037300 0.000000 -36.149100
5.136555 17.331323 0.999804 -176.191597 -56.201131 -171.966907 -12.119356 2.866455 -1.907950 -9.378231 36.444681 -17.533570 -3.483831 -1.038889 1.463222 1.754086 13.052549 -3.057229 0.997000 0.000000 -26.652300 7.968784 -2.016136 7.086917 4.469067 13.166113 -17.465190 3.779527 1.541518 -0.092802 1.908879 12.230898 5.171130 2.020800 -0.000000 -36.421699
5.155882 17.336479 1.013235 -176.055718 -56.460124 -172.219710 -12.125871 2.917674 -1.931833 -9.199492 36.348067 -17.264678 -3.479754 -1.006695 1.133178 1.713933 12.785946 -2.792891 1.033000 -0.000001 -26.757700 8.012763 -1.908693 6.906187 4.605362 12.847520 -17.080644 3.790684 1.580509 -0.323459 1.891527 11.982405 5.355874 1.985400 0.000000 -36.693500
5.174671 17.341421 1.026716 -175.915522 -56.825694 -172.484790 -12.129519 2.970027 -1.942860 -9.010115 36.165097 -16.963486 -3.468247 -0.978635 0.778598 1.673453 12.510316 -2.524094 1.067300 -0.000000 -26.843700 8.063524 -1.803802 6.711721 4.736800 12.488385 -16.666287 3.797290 1.620849 -0.559170 1.867588 11.675744 5.513380 1.931700 0.000000 -36.955500
5.192013 17.346076 1.039873 -175.770891 -57.286366 -172.750271 -12.131238 3.023220 -1.939787 -8.824365 35.911949 -16.649290 -3.451962 -0.956336 0.399686 1.631336 12.218784 -2.250652 1.099000 0.000000 -26.912900 8.118137 -1.705963 6.511795 4.859032 12.099808 -16.245643 3.799527 1.661666 -0.790064 1.837936 11.319691 5.640802 1.861400 -0.000001 -37.198500
5.207260 17.350439 1.052360 -175.629002 -57.827646 -173.007341 -12.133080 3.077104 -1.920916 -8.653579 35.610336 -16.336939 -3.433459 -0.941271 -0.002232 1.586173 11.904796 -1.971996 1.127200 -0.000000 -26.968400 8.172583 -1.620450 6.316382 4.968645 11.693825 -15.836845 3.797698 1.701914 -1.008544 1.803634 10.925340 5.738109 1.777800 -0.000000 -37.417099
5.219734 17.354495 1.064015 -175.496246 -58.431396 -173.250603 -12.138025 3.132151 -1.883658 -8.505492 35.285625 -16.037558 -3.415183 -0.934640 -0.423769 1.536746 11.563244 -1.687996 1.150900 0.000000 -27.014100 8.222170 -1.553002 6.136867 5.063650 11.282574 -15.453627 3.792568 1.740764 -1.209048 1.765982 10.506050 5.806941 1.684400 0.000000 -37.607600
5.228718 17.358214 1.074789 -175.376055 -59.074274 -173.479884 -12.148940 3.189173 -1.826763 -8.382609 34.967698 -15.758092 -3.399666 -0.936760 -0.857318 1.482004 11.189090 -1.401188 1.168300 -0.000000 -27.055200 8.262734 -1.508183 5.983869 5.143515 10.879302 -15.102945 3.785247 1.777631 -1.388054 1.726436 10.076656 5.849958 1.585500 0.000000 -37.766200
5.234059 17.361588 1.084817 -175.273768 -59.728337 -173.697360 -12.167174 3.248907 -1.751111 -8.284015 34.679925 -15.499281 -3.388192 -0.946948 -1.295626 1.422460 10.786739 -1.114893 1.178800 0.000000 -27.095200 8.292129 -1.487168 5.863904 5.208637 10.496524 -14.785937 3.776774 1.812080 -1.544705 1.686482 9.651489 5.872501 1.485300 -0.000000 -37.896300
5.235498 17.364520 1.094262 -175.185072 -60.361068 -173.906703 -12.192227 3.311112 -1.662899 -8.205095 34.447899 -15.261718 -3.382504 -0.963167 -1.725892 1.358869 10.359714 -0.836635 1.180999 0.000000 -27.138101 8.310500 -1.487427 5.778483 5.260429 10.147368 -14.500877 3.768279 1.843928 -1.678797 1.647651 9.245457 5.878276 1.387900 0.000000 -37.993600
5.233331 17.367018 1.103258 -175.110894 -60.942065 -174.107553 -12.222382 3.374959 -1.569061 -8.141581 34.280180 -15.041541 -3.382264 -0.983048 -2.138129 1.294067 9.925318 -0.573583 1.175400 -0.000000 -27.183900 8.319479 -1.503686 5.724700 5.299122 9.843406 -14.243492 3.760361 1.873080 -1.793297 1.611225 8.869690 5.873402 1.296700 0.000000 -38.063500
5.227756 17.368972 1.111881 -175.051083 -61.444060 -174.295303 -12.255713 3.438851 -1.478047 -8.089542 34.182569 -14.836285 -3.387219 -1.004082 -2.519356 1.230865 9.500474 -0.335153 1.163099 -0.000000 -27.232299 8.321089 -1.530022 5.697646 5.323418 9.594664 -14.010084 3.753320 1.899501 -1.891080 1.578286 8.533902 5.860848 1.214300 -0.000001 -38.106400
5.219369 17.370355 1.120102 -175.012590 -61.848679 -174.462841 -12.290464 3.500862 -1.396762 -8.046066 34.149724 -14.640803 -3.395869 -1.024095 -2.857350 1.172658 9.107383 -0.131016 1.145800 0.000000 -27.281200 8.317206 -1.560937 5.691275 5.330919 9.407504 -13.794890 3.746868 1.922917 -1.975414 1.549481 8.244201 5.842340 1.142200 0.000001 -38.126400
5.208815 17.371060 1.127885 -175.008588 -62.139155 -174.606235 -12.326948 3.563637 -1.323492 -8.007669 34.171965 -14.446431 -3.405790 -1.040876 -3.140912 1.122862 8.769418 0.029710 1.126100 -0.000000 -27.327799 8.308022 -1.593474 5.704163 5.318239 9.284305 -13.587164 3.741211 1.943898 -2.047365 1.525609 8.005086 5.818227 1.081500 -0.000001 -38.128600
